<svg xmlns="http://www.w3.org/2000/svg" viewBox="253.481 2449.5 34.039 31.533">
  <defs>
    <style>
      .cls-1 {
        fill: none;
        stroke: #95989a;
      }
    </style>
  </defs>
  <path id="like" class="cls-1" d="M16.4,7.363A8.631,8.631,0,0,1,24.315,2c4.767,0,8.2,4.078,8.632,8.939a8.9,8.9,0,0,1-.28,3.379,14.938,14.938,0,0,1-4.553,7.592L16.4,32.361,4.885,21.909A14.935,14.935,0,0,1,.333,14.317a8.9,8.9,0,0,1-.28-3.379C.484,6.078,3.918,2,8.685,2A8.363,8.363,0,0,1,16.4,7.363Z" transform="translate(254 2448)"/>
</svg>
