<svg xmlns="http://www.w3.org/2000/svg" width="512" height="438.011" viewBox="0 0 512 438.011">
  <g id="Group_1" data-name="Group 1" transform="translate(-518 -222)">
    <g id="friends" transform="translate(518 222)">
      <path id="Path_1" data-name="Path 1" d="M97.754,122.855a61.34,61.34,0,1,0-.133,0A79.49,79.49,0,0,0,78.9,125.117,82.045,82.045,0,0,1,33.574,275.55H18.539V423.007a15,15,0,0,0,15,15H176.848v-236c0-.473-.027-1.922-.062-2.379a79.136,79.136,0,0,0-79.031-76.773Zm0,0" fill="#f9ca24"/>
      <path id="Path_2" data-name="Path 2" d="M85.617,193.473A52.077,52.077,0,0,0,33.566,141.4l-18.566,0a15,15,0,0,0-15,15v74.156a15,15,0,0,0,15,15H33.559a52.079,52.079,0,0,0,52.059-52.078Zm0,0" fill="#f9ca24"/>
      <path id="Path_3" data-name="Path 3" d="M396.383,193.473A82.06,82.06,0,0,1,433.1,125.121,78.926,78.926,0,0,0,415,122.86a61.344,61.344,0,1,0-61.344-61.344A61.414,61.414,0,0,0,415,122.86c-43.914-.379-79.848,36.254-79.848,80.168V438.012H478.461a15,15,0,0,0,15-15V275.551h-15.02a82.182,82.182,0,0,1-82.059-82.078Zm0,0" fill="#f9ca24"/>
      <path id="Path_4" data-name="Path 4" d="M497,141.4l-18.566,0a52.076,52.076,0,0,0,.008,104.152H497a15,15,0,0,0,15-15V156.395a15,15,0,0,0-15-15Zm0,0" fill="#f9ca24"/>
      <path id="Path_5" data-name="Path 5" d="M256.348,122.688A61.344,61.344,0,1,0,195,61.344,61.414,61.414,0,0,0,256.348,122.688Zm0,0" fill="#f9ca24"/>
      <path id="Path_6" data-name="Path 6" d="M339.719,122.859H172.828c.32.3.641.6.953.9a108.572,108.572,0,0,1,32.98,74.59c.082,1.715.086,3.563.086,3.656L157,322l49.848,116.011h98.3V203.027A109.963,109.963,0,0,1,337,125.52c.891-.906,1.8-1.789,2.719-2.66Zm0,0" fill="#f9ca24"/>
    </g>
  </g>
</svg>
