<svg xmlns="http://www.w3.org/2000/svg" viewBox="1883 207 30.875 39">
  <defs>
    <style>
      .cls-1 {
        fill: #fff;
      }
    </style>
  </defs>
  <path id="notification" class="cls-1" d="M21.438,1a3.262,3.262,0,0,0-3.25,3.25,3.205,3.205,0,0,0,.232,1.182c-4.546,1.161-7.544,4.942-7.544,10.193,0,6.037-1.181,8.784-2.282,10.293a10.937,10.937,0,0,1-1.574,1.661A2.586,2.586,0,0,0,6,29.438a3.291,3.291,0,0,0,1.619,2.682,10.669,10.669,0,0,0,3.588,1.362,36.208,36.208,0,0,0,5.451.687,4.876,4.876,0,1,0,9.558,0,36.219,36.219,0,0,0,5.453-.687,10.669,10.669,0,0,0,3.588-1.362,3.291,3.291,0,0,0,1.619-2.682,2.586,2.586,0,0,0-1.019-1.858,10.937,10.937,0,0,1-1.574-1.661C33.181,24.409,32,21.662,32,15.625c0-5.212-3-9.024-7.546-10.19a3.207,3.207,0,0,0,.233-1.185A3.262,3.262,0,0,0,21.438,1Zm0,1.625A1.625,1.625,0,1,1,19.813,4.25,1.613,1.613,0,0,1,21.438,2.625ZM19.522,6.857a3.176,3.176,0,0,0,3.829,0c4.347.775,7.024,3.876,7.024,8.766,0,6.252,1.257,9.421,2.593,11.251a12.338,12.338,0,0,0,1.777,1.89c.43.4.5.51.5.671,0,.508-.234.889-.9,1.33a9.461,9.461,0,0,1-3.039,1.127,49.3,49.3,0,0,1-9.879.793,49.3,49.3,0,0,1-9.879-.793A9.461,9.461,0,0,1,8.52,30.767c-.661-.441-.9-.822-.9-1.33,0-.161.074-.269.5-.671a12.339,12.339,0,0,0,1.777-1.89c1.336-1.83,2.593-5,2.593-11.251C12.5,10.69,15.172,7.637,19.522,6.857Zm-1.2,27.395c1.029.037,2.069.06,3.117.06s2.088-.023,3.117-.06a3.25,3.25,0,1,1-6.233,0Z" transform="translate(1877 206)"/>
</svg>
