<svg xmlns="http://www.w3.org/2000/svg" viewBox="1152 578 81.158 70.5">
  <defs>
    <style>
      .cls-1 {
        fill: #555;
      }
    </style>
  </defs>
  <g id="photo-camera" transform="translate(1152 544.141)">
    <g id="Group_1" data-name="Group 1" transform="translate(0 33.859)">
      <path id="Path_4" data-name="Path 4" class="cls-1" d="M70.277,47.326l-8.517-.045L53.6,35.108a2.7,2.7,0,0,0-2.23-1.249H29.386a2.688,2.688,0,0,0-2.185,1.2L18.773,47.281l-7.893.045A10.924,10.924,0,0,0,0,58.206V93.389a11,11,0,0,0,10.88,10.97h59.4a11,11,0,0,0,10.88-10.97V58.206A10.924,10.924,0,0,0,70.277,47.326Zm5.53,46.064a5.635,5.635,0,0,1-5.529,5.619h-59.4a5.635,5.635,0,0,1-5.529-5.619V58.206a5.557,5.557,0,0,1,5.529-5.529H20.2a2.688,2.688,0,0,0,2.185-1.2l8.428-12.218h19.13l8.116,12.129a2.752,2.752,0,0,0,2.185,1.2l9.989.089a5.557,5.557,0,0,1,5.529,5.529V93.39h.045Z" transform="translate(0 -33.859)"/>
      <path id="Path_5" data-name="Path 5" class="cls-1" d="M157.785,160.225a18.952,18.952,0,1,0,18.952,18.952A18.964,18.964,0,0,0,157.785,160.225Zm0,32.552a13.6,13.6,0,1,1,13.6-13.6A13.626,13.626,0,0,1,157.785,192.777Z" transform="translate(-116.983 -140.337)"/>
      <circle id="Ellipse_3" data-name="Ellipse 3" class="cls-1" cx="1.026" cy="1.026" r="1.026" transform="translate(65.149 26.711)"/>
      <path id="Path_6" data-name="Path 6" class="cls-1" d="M400.651,186.575a3.7,3.7,0,1,0,3.7,3.7A3.692,3.692,0,0,0,400.651,186.575Zm0,5.351a1.646,1.646,0,0,1-1.65-1.65,1.65,1.65,0,0,1,3.3,0A1.646,1.646,0,0,1,400.651,191.926Z" transform="translate(-334.476 -162.54)"/>
    </g>
  </g>
</svg>
